<?xml version="1.0" encoding="utf-8" standalone="no"?>
<!DOCTYPE svg PUBLIC "-//W3C//DTD SVG 1.1//EN"
  "http://www.w3.org/Graphics/SVG/1.1/DTD/svg11.dtd">
<!-- Created with matplotlib (https://matplotlib.org/) -->
<svg height="248.518125pt" version="1.1" viewBox="0 0 382.591916 248.518125" width="382.591916pt" xmlns="http://www.w3.org/2000/svg" xmlns:xlink="http://www.w3.org/1999/xlink">
 <metadata>
  <rdf:RDF xmlns:cc="http://creativecommons.org/ns#" xmlns:dc="http://purl.org/dc/elements/1.1/" xmlns:rdf="http://www.w3.org/1999/02/22-rdf-syntax-ns#">
   <cc:Work>
    <dc:type rdf:resource="http://purl.org/dc/dcmitype/StillImage"/>
    <dc:date>2021-02-11T03:08:38.083275</dc:date>
    <dc:format>image/svg+xml</dc:format>
    <dc:creator>
     <cc:Agent>
      <dc:title>Matplotlib v3.3.4, https://matplotlib.org/</dc:title>
     </cc:Agent>
    </dc:creator>
   </cc:Work>
  </rdf:RDF>
 </metadata>
 <defs>
  <style type="text/css">*{stroke-linecap:butt;stroke-linejoin:round;}</style>
 </defs>
 <g id="figure_1">
  <g id="patch_1">
   <path d="M -0 248.518125 
L 382.591916 248.518125 
L 382.591916 0 
L -0 0 
z
" style="fill:none;"/>
  </g>
  <g id="axes_1">
   <g id="patch_2">
    <path d="M 39.65 224.64 
L 374.45 224.64 
L 374.45 7.2 
L 39.65 7.2 
z
" style="fill:#ffffff;"/>
   </g>
   <g id="matplotlib.axis_1">
    <g id="xtick_1">
     <g id="line2d_1">
      <defs>
       <path d="M 0 0 
L 0 3.5 
" id="m7a801fc6b9" style="stroke:#000000;stroke-width:0.8;"/>
      </defs>
      <g>
       <use style="stroke:#000000;stroke-width:0.8;" x="54.868182" xlink:href="#m7a801fc6b9" y="224.64"/>
      </g>
     </g>
     <g id="text_1">
      <!-- 0 -->
      <g transform="translate(51.686932 239.238437)scale(0.1 -0.1)">
       <defs>
        <path d="M 31.78125 66.40625 
Q 24.171875 66.40625 20.328125 58.90625 
Q 16.5 51.421875 16.5 36.375 
Q 16.5 21.390625 20.328125 13.890625 
Q 24.171875 6.390625 31.78125 6.390625 
Q 39.453125 6.390625 43.28125 13.890625 
Q 47.125 21.390625 47.125 36.375 
Q 47.125 51.421875 43.28125 58.90625 
Q 39.453125 66.40625 31.78125 66.40625 
z
M 31.78125 74.21875 
Q 44.046875 74.21875 50.515625 64.515625 
Q 56.984375 54.828125 56.984375 36.375 
Q 56.984375 17.96875 50.515625 8.265625 
Q 44.046875 -1.421875 31.78125 -1.421875 
Q 19.53125 -1.421875 13.0625 8.265625 
Q 6.59375 17.96875 6.59375 36.375 
Q 6.59375 54.828125 13.0625 64.515625 
Q 19.53125 74.21875 31.78125 74.21875 
z
" id="DejaVuSans-48"/>
       </defs>
       <use xlink:href="#DejaVuSans-48"/>
      </g>
     </g>
    </g>
    <g id="xtick_2">
     <g id="line2d_2">
      <g>
       <use style="stroke:#000000;stroke-width:0.8;" x="105.637763" xlink:href="#m7a801fc6b9" y="224.64"/>
      </g>
     </g>
     <g id="text_2">
      <!-- 2000 -->
      <g transform="translate(92.912763 239.238437)scale(0.1 -0.1)">
       <defs>
        <path d="M 19.1875 8.296875 
L 53.609375 8.296875 
L 53.609375 0 
L 7.328125 0 
L 7.328125 8.296875 
Q 12.9375 14.109375 22.625 23.890625 
Q 32.328125 33.6875 34.8125 36.53125 
Q 39.546875 41.84375 41.421875 45.53125 
Q 43.3125 49.21875 43.3125 52.78125 
Q 43.3125 58.59375 39.234375 62.25 
Q 35.15625 65.921875 28.609375 65.921875 
Q 23.96875 65.921875 18.8125 64.3125 
Q 13.671875 62.703125 7.8125 59.421875 
L 7.8125 69.390625 
Q 13.765625 71.78125 18.9375 73 
Q 24.125 74.21875 28.421875 74.21875 
Q 39.75 74.21875 46.484375 68.546875 
Q 53.21875 62.890625 53.21875 53.421875 
Q 53.21875 48.921875 51.53125 44.890625 
Q 49.859375 40.875 45.40625 35.40625 
Q 44.1875 33.984375 37.640625 27.21875 
Q 31.109375 20.453125 19.1875 8.296875 
z
" id="DejaVuSans-50"/>
       </defs>
       <use xlink:href="#DejaVuSans-50"/>
       <use x="63.623047" xlink:href="#DejaVuSans-48"/>
       <use x="127.246094" xlink:href="#DejaVuSans-48"/>
       <use x="190.869141" xlink:href="#DejaVuSans-48"/>
      </g>
     </g>
    </g>
    <g id="xtick_3">
     <g id="line2d_3">
      <g>
       <use style="stroke:#000000;stroke-width:0.8;" x="156.407343" xlink:href="#m7a801fc6b9" y="224.64"/>
      </g>
     </g>
     <g id="text_3">
      <!-- 4000 -->
      <g transform="translate(143.682343 239.238437)scale(0.1 -0.1)">
       <defs>
        <path d="M 37.796875 64.3125 
L 12.890625 25.390625 
L 37.796875 25.390625 
z
M 35.203125 72.90625 
L 47.609375 72.90625 
L 47.609375 25.390625 
L 58.015625 25.390625 
L 58.015625 17.1875 
L 47.609375 17.1875 
L 47.609375 0 
L 37.796875 0 
L 37.796875 17.1875 
L 4.890625 17.1875 
L 4.890625 26.703125 
z
" id="DejaVuSans-52"/>
       </defs>
       <use xlink:href="#DejaVuSans-52"/>
       <use x="63.623047" xlink:href="#DejaVuSans-48"/>
       <use x="127.246094" xlink:href="#DejaVuSans-48"/>
       <use x="190.869141" xlink:href="#DejaVuSans-48"/>
      </g>
     </g>
    </g>
    <g id="xtick_4">
     <g id="line2d_4">
      <g>
       <use style="stroke:#000000;stroke-width:0.8;" x="207.176924" xlink:href="#m7a801fc6b9" y="224.64"/>
      </g>
     </g>
     <g id="text_4">
      <!-- 6000 -->
      <g transform="translate(194.451924 239.238437)scale(0.1 -0.1)">
       <defs>
        <path d="M 33.015625 40.375 
Q 26.375 40.375 22.484375 35.828125 
Q 18.609375 31.296875 18.609375 23.390625 
Q 18.609375 15.53125 22.484375 10.953125 
Q 26.375 6.390625 33.015625 6.390625 
Q 39.65625 6.390625 43.53125 10.953125 
Q 47.40625 15.53125 47.40625 23.390625 
Q 47.40625 31.296875 43.53125 35.828125 
Q 39.65625 40.375 33.015625 40.375 
z
M 52.59375 71.296875 
L 52.59375 62.3125 
Q 48.875 64.0625 45.09375 64.984375 
Q 41.3125 65.921875 37.59375 65.921875 
Q 27.828125 65.921875 22.671875 59.328125 
Q 17.53125 52.734375 16.796875 39.40625 
Q 19.671875 43.65625 24.015625 45.921875 
Q 28.375 48.1875 33.59375 48.1875 
Q 44.578125 48.1875 50.953125 41.515625 
Q 57.328125 34.859375 57.328125 23.390625 
Q 57.328125 12.15625 50.6875 5.359375 
Q 44.046875 -1.421875 33.015625 -1.421875 
Q 20.359375 -1.421875 13.671875 8.265625 
Q 6.984375 17.96875 6.984375 36.375 
Q 6.984375 53.65625 15.1875 63.9375 
Q 23.390625 74.21875 37.203125 74.21875 
Q 40.921875 74.21875 44.703125 73.484375 
Q 48.484375 72.75 52.59375 71.296875 
z
" id="DejaVuSans-54"/>
       </defs>
       <use xlink:href="#DejaVuSans-54"/>
       <use x="63.623047" xlink:href="#DejaVuSans-48"/>
       <use x="127.246094" xlink:href="#DejaVuSans-48"/>
       <use x="190.869141" xlink:href="#DejaVuSans-48"/>
      </g>
     </g>
    </g>
    <g id="xtick_5">
     <g id="line2d_5">
      <g>
       <use style="stroke:#000000;stroke-width:0.8;" x="257.946505" xlink:href="#m7a801fc6b9" y="224.64"/>
      </g>
     </g>
     <g id="text_5">
      <!-- 8000 -->
      <g transform="translate(245.221505 239.238437)scale(0.1 -0.1)">
       <defs>
        <path d="M 31.78125 34.625 
Q 24.75 34.625 20.71875 30.859375 
Q 16.703125 27.09375 16.703125 20.515625 
Q 16.703125 13.921875 20.71875 10.15625 
Q 24.75 6.390625 31.78125 6.390625 
Q 38.8125 6.390625 42.859375 10.171875 
Q 46.921875 13.96875 46.921875 20.515625 
Q 46.921875 27.09375 42.890625 30.859375 
Q 38.875 34.625 31.78125 34.625 
z
M 21.921875 38.8125 
Q 15.578125 40.375 12.03125 44.71875 
Q 8.5 49.078125 8.5 55.328125 
Q 8.5 64.0625 14.71875 69.140625 
Q 20.953125 74.21875 31.78125 74.21875 
Q 42.671875 74.21875 48.875 69.140625 
Q 55.078125 64.0625 55.078125 55.328125 
Q 55.078125 49.078125 51.53125 44.71875 
Q 48 40.375 41.703125 38.8125 
Q 48.828125 37.15625 52.796875 32.3125 
Q 56.78125 27.484375 56.78125 20.515625 
Q 56.78125 9.90625 50.3125 4.234375 
Q 43.84375 -1.421875 31.78125 -1.421875 
Q 19.734375 -1.421875 13.25 4.234375 
Q 6.78125 9.90625 6.78125 20.515625 
Q 6.78125 27.484375 10.78125 32.3125 
Q 14.796875 37.15625 21.921875 38.8125 
z
M 18.3125 54.390625 
Q 18.3125 48.734375 21.84375 45.5625 
Q 25.390625 42.390625 31.78125 42.390625 
Q 38.140625 42.390625 41.71875 45.5625 
Q 45.3125 48.734375 45.3125 54.390625 
Q 45.3125 60.0625 41.71875 63.234375 
Q 38.140625 66.40625 31.78125 66.40625 
Q 25.390625 66.40625 21.84375 63.234375 
Q 18.3125 60.0625 18.3125 54.390625 
z
" id="DejaVuSans-56"/>
       </defs>
       <use xlink:href="#DejaVuSans-56"/>
       <use x="63.623047" xlink:href="#DejaVuSans-48"/>
       <use x="127.246094" xlink:href="#DejaVuSans-48"/>
       <use x="190.869141" xlink:href="#DejaVuSans-48"/>
      </g>
     </g>
    </g>
    <g id="xtick_6">
     <g id="line2d_6">
      <g>
       <use style="stroke:#000000;stroke-width:0.8;" x="308.716085" xlink:href="#m7a801fc6b9" y="224.64"/>
      </g>
     </g>
     <g id="text_6">
      <!-- 10000 -->
      <g transform="translate(292.809835 239.238437)scale(0.1 -0.1)">
       <defs>
        <path d="M 12.40625 8.296875 
L 28.515625 8.296875 
L 28.515625 63.921875 
L 10.984375 60.40625 
L 10.984375 69.390625 
L 28.421875 72.90625 
L 38.28125 72.90625 
L 38.28125 8.296875 
L 54.390625 8.296875 
L 54.390625 0 
L 12.40625 0 
z
" id="DejaVuSans-49"/>
       </defs>
       <use xlink:href="#DejaVuSans-49"/>
       <use x="63.623047" xlink:href="#DejaVuSans-48"/>
       <use x="127.246094" xlink:href="#DejaVuSans-48"/>
       <use x="190.869141" xlink:href="#DejaVuSans-48"/>
       <use x="254.492188" xlink:href="#DejaVuSans-48"/>
      </g>
     </g>
    </g>
    <g id="xtick_7">
     <g id="line2d_7">
      <g>
       <use style="stroke:#000000;stroke-width:0.8;" x="359.485666" xlink:href="#m7a801fc6b9" y="224.64"/>
      </g>
     </g>
     <g id="text_7">
      <!-- 12000 -->
      <g transform="translate(343.579416 239.238437)scale(0.1 -0.1)">
       <use xlink:href="#DejaVuSans-49"/>
       <use x="63.623047" xlink:href="#DejaVuSans-50"/>
       <use x="127.246094" xlink:href="#DejaVuSans-48"/>
       <use x="190.869141" xlink:href="#DejaVuSans-48"/>
       <use x="254.492188" xlink:href="#DejaVuSans-48"/>
      </g>
     </g>
    </g>
   </g>
   <g id="matplotlib.axis_2">
    <g id="ytick_1">
     <g id="line2d_8">
      <defs>
       <path d="M 0 0 
L -3.5 0 
" id="mdc3f8b9300" style="stroke:#000000;stroke-width:0.8;"/>
      </defs>
      <g>
       <use style="stroke:#000000;stroke-width:0.8;" x="39.65" xlink:href="#mdc3f8b9300" y="214.756364"/>
      </g>
     </g>
     <g id="text_8">
      <!-- 0 -->
      <g transform="translate(26.2875 218.555582)scale(0.1 -0.1)">
       <use xlink:href="#DejaVuSans-48"/>
      </g>
     </g>
    </g>
    <g id="ytick_2">
     <g id="line2d_9">
      <g>
       <use style="stroke:#000000;stroke-width:0.8;" x="39.65" xlink:href="#mdc3f8b9300" y="181.783432"/>
      </g>
     </g>
     <g id="text_9">
      <!-- 500 -->
      <g transform="translate(13.5625 185.58265)scale(0.1 -0.1)">
       <defs>
        <path d="M 10.796875 72.90625 
L 49.515625 72.90625 
L 49.515625 64.59375 
L 19.828125 64.59375 
L 19.828125 46.734375 
Q 21.96875 47.46875 24.109375 47.828125 
Q 26.265625 48.1875 28.421875 48.1875 
Q 40.625 48.1875 47.75 41.5 
Q 54.890625 34.8125 54.890625 23.390625 
Q 54.890625 11.625 47.5625 5.09375 
Q 40.234375 -1.421875 26.90625 -1.421875 
Q 22.3125 -1.421875 17.546875 -0.640625 
Q 12.796875 0.140625 7.71875 1.703125 
L 7.71875 11.625 
Q 12.109375 9.234375 16.796875 8.0625 
Q 21.484375 6.890625 26.703125 6.890625 
Q 35.15625 6.890625 40.078125 11.328125 
Q 45.015625 15.765625 45.015625 23.390625 
Q 45.015625 31 40.078125 35.4375 
Q 35.15625 39.890625 26.703125 39.890625 
Q 22.75 39.890625 18.8125 39.015625 
Q 14.890625 38.140625 10.796875 36.28125 
z
" id="DejaVuSans-53"/>
       </defs>
       <use xlink:href="#DejaVuSans-53"/>
       <use x="63.623047" xlink:href="#DejaVuSans-48"/>
       <use x="127.246094" xlink:href="#DejaVuSans-48"/>
      </g>
     </g>
    </g>
    <g id="ytick_3">
     <g id="line2d_10">
      <g>
       <use style="stroke:#000000;stroke-width:0.8;" x="39.65" xlink:href="#mdc3f8b9300" y="148.8105"/>
      </g>
     </g>
     <g id="text_10">
      <!-- 1000 -->
      <g transform="translate(7.2 152.609718)scale(0.1 -0.1)">
       <use xlink:href="#DejaVuSans-49"/>
       <use x="63.623047" xlink:href="#DejaVuSans-48"/>
       <use x="127.246094" xlink:href="#DejaVuSans-48"/>
       <use x="190.869141" xlink:href="#DejaVuSans-48"/>
      </g>
     </g>
    </g>
    <g id="ytick_4">
     <g id="line2d_11">
      <g>
       <use style="stroke:#000000;stroke-width:0.8;" x="39.65" xlink:href="#mdc3f8b9300" y="115.837568"/>
      </g>
     </g>
     <g id="text_11">
      <!-- 1500 -->
      <g transform="translate(7.2 119.636786)scale(0.1 -0.1)">
       <use xlink:href="#DejaVuSans-49"/>
       <use x="63.623047" xlink:href="#DejaVuSans-53"/>
       <use x="127.246094" xlink:href="#DejaVuSans-48"/>
       <use x="190.869141" xlink:href="#DejaVuSans-48"/>
      </g>
     </g>
    </g>
    <g id="ytick_5">
     <g id="line2d_12">
      <g>
       <use style="stroke:#000000;stroke-width:0.8;" x="39.65" xlink:href="#mdc3f8b9300" y="82.864636"/>
      </g>
     </g>
     <g id="text_12">
      <!-- 2000 -->
      <g transform="translate(7.2 86.663854)scale(0.1 -0.1)">
       <use xlink:href="#DejaVuSans-50"/>
       <use x="63.623047" xlink:href="#DejaVuSans-48"/>
       <use x="127.246094" xlink:href="#DejaVuSans-48"/>
       <use x="190.869141" xlink:href="#DejaVuSans-48"/>
      </g>
     </g>
    </g>
    <g id="ytick_6">
     <g id="line2d_13">
      <g>
       <use style="stroke:#000000;stroke-width:0.8;" x="39.65" xlink:href="#mdc3f8b9300" y="49.891704"/>
      </g>
     </g>
     <g id="text_13">
      <!-- 2500 -->
      <g transform="translate(7.2 53.690922)scale(0.1 -0.1)">
       <use xlink:href="#DejaVuSans-50"/>
       <use x="63.623047" xlink:href="#DejaVuSans-53"/>
       <use x="127.246094" xlink:href="#DejaVuSans-48"/>
       <use x="190.869141" xlink:href="#DejaVuSans-48"/>
      </g>
     </g>
    </g>
    <g id="ytick_7">
     <g id="line2d_14">
      <g>
       <use style="stroke:#000000;stroke-width:0.8;" x="39.65" xlink:href="#mdc3f8b9300" y="16.918772"/>
      </g>
     </g>
     <g id="text_14">
      <!-- 3000 -->
      <g transform="translate(7.2 20.71799)scale(0.1 -0.1)">
       <defs>
        <path d="M 40.578125 39.3125 
Q 47.65625 37.796875 51.625 33 
Q 55.609375 28.21875 55.609375 21.1875 
Q 55.609375 10.40625 48.1875 4.484375 
Q 40.765625 -1.421875 27.09375 -1.421875 
Q 22.515625 -1.421875 17.65625 -0.515625 
Q 12.796875 0.390625 7.625 2.203125 
L 7.625 11.71875 
Q 11.71875 9.328125 16.59375 8.109375 
Q 21.484375 6.890625 26.8125 6.890625 
Q 36.078125 6.890625 40.9375 10.546875 
Q 45.796875 14.203125 45.796875 21.1875 
Q 45.796875 27.640625 41.28125 31.265625 
Q 36.765625 34.90625 28.71875 34.90625 
L 20.21875 34.90625 
L 20.21875 43.015625 
L 29.109375 43.015625 
Q 36.375 43.015625 40.234375 45.921875 
Q 44.09375 48.828125 44.09375 54.296875 
Q 44.09375 59.90625 40.109375 62.90625 
Q 36.140625 65.921875 28.71875 65.921875 
Q 24.65625 65.921875 20.015625 65.03125 
Q 15.375 64.15625 9.8125 62.3125 
L 9.8125 71.09375 
Q 15.4375 72.65625 20.34375 73.4375 
Q 25.25 74.21875 29.59375 74.21875 
Q 40.828125 74.21875 47.359375 69.109375 
Q 53.90625 64.015625 53.90625 55.328125 
Q 53.90625 49.265625 50.4375 45.09375 
Q 46.96875 40.921875 40.578125 39.3125 
z
" id="DejaVuSans-51"/>
       </defs>
       <use xlink:href="#DejaVuSans-51"/>
       <use x="63.623047" xlink:href="#DejaVuSans-48"/>
       <use x="127.246094" xlink:href="#DejaVuSans-48"/>
       <use x="190.869141" xlink:href="#DejaVuSans-48"/>
      </g>
     </g>
    </g>
   </g>
   <g id="line2d_15">
    <path clip-path="url(#pe208f3d820)" d="M 54.868182 214.756364 
L 55.12203 214.591499 
L 55.375878 214.426634 
L 55.629726 214.26177 
L 55.883573 214.096905 
L 56.137421 213.93204 
L 56.391269 213.767176 
L 56.645117 213.602311 
L 56.898965 213.437446 
L 57.152813 213.272582 
L 57.406661 213.107717 
L 57.660509 212.942852 
L 57.914357 212.777988 
L 58.168205 212.613123 
L 58.422052 212.448258 
L 58.6759 212.283394 
L 58.929748 212.118529 
L 59.183596 211.953664 
L 59.437444 211.7888 
L 59.691292 211.623935 
" style="fill:none;stroke:#1f77b4;stroke-linecap:square;stroke-width:1.5;"/>
   </g>
   <g id="line2d_16">
    <path clip-path="url(#pe208f3d820)" d="M 54.868182 214.756364 
L 55.12203 214.591499 
L 55.375878 214.426634 
L 55.629726 214.26177 
L 55.883573 214.096905 
L 56.137421 213.93204 
L 56.391269 213.767176 
L 56.645117 213.602311 
L 56.898965 213.437446 
L 57.152813 213.272582 
L 57.406661 213.107717 
L 57.660509 212.942852 
L 57.914357 212.777988 
L 58.168205 212.613123 
L 58.422052 212.448258 
L 58.6759 212.283394 
L 58.929748 212.118529 
L 59.183596 211.953664 
L 59.437444 211.7888 
L 59.691292 211.623935 
" style="fill:none;stroke:#ff7f0e;stroke-linecap:square;stroke-width:1.5;"/>
   </g>
   <g id="line2d_17">
    <path clip-path="url(#pe208f3d820)" d="M 54.868182 214.756364 
L 55.12203 214.60249 
L 55.375878 214.448616 
L 55.629726 214.294743 
L 55.883573 214.140869 
L 56.137421 213.986995 
L 56.391269 213.833122 
L 56.645117 213.679248 
L 56.898965 213.525374 
L 57.152813 213.3715 
L 57.406661 213.217627 
L 57.660509 213.063753 
L 57.914357 212.909879 
L 58.168205 212.756006 
L 58.422052 212.602132 
L 58.6759 212.448258 
L 58.929748 212.294385 
L 59.183596 212.140511 
L 59.437444 211.986637 
L 59.691292 211.832764 
L 59.94514 211.67889 
L 60.198988 211.525016 
L 60.452836 211.371143 
L 60.706684 211.217269 
L 60.960532 211.063395 
L 61.214379 210.909522 
L 61.468227 210.755648 
L 61.722075 210.601774 
L 61.975923 210.447901 
L 62.229771 210.294027 
" style="fill:none;stroke:#2ca02c;stroke-linecap:square;stroke-width:1.5;"/>
   </g>
   <g id="line2d_18">
    <path clip-path="url(#pe208f3d820)" d="M 54.868182 214.756364 
L 55.12203 214.591499 
L 55.375878 214.426634 
L 55.629726 214.26177 
L 55.883573 214.096905 
L 56.137421 213.93204 
L 56.391269 213.767176 
L 56.645117 213.602311 
L 56.898965 213.437446 
L 57.152813 213.272582 
L 57.406661 213.107717 
L 57.660509 212.942852 
L 57.914357 212.777988 
L 58.168205 212.613123 
L 58.422052 212.448258 
L 58.6759 212.283394 
L 58.929748 212.118529 
L 59.183596 211.953664 
L 59.437444 211.7888 
L 59.691292 211.623935 
" style="fill:none;stroke:#d62728;stroke-linecap:square;stroke-width:1.5;"/>
   </g>
   <g id="line2d_19">
    <path clip-path="url(#pe208f3d820)" d="M 54.868182 214.756364 
L 55.12203 214.60249 
L 55.375878 214.448616 
L 55.629726 214.294743 
L 55.883573 214.140869 
L 56.137421 213.986995 
L 56.391269 213.833122 
L 56.645117 213.679248 
L 56.898965 213.525374 
L 57.152813 213.3715 
L 57.406661 213.217627 
L 57.660509 213.063753 
L 57.914357 212.909879 
L 58.168205 212.756006 
L 58.422052 212.602132 
L 58.6759 212.448258 
L 58.929748 212.294385 
L 59.183596 212.140511 
L 59.437444 211.986637 
L 59.691292 211.832764 
L 59.94514 211.67889 
L 60.198988 211.525016 
L 60.452836 211.371143 
L 60.706684 211.217269 
L 60.960532 211.063395 
L 61.214379 210.909522 
L 61.468227 210.755648 
L 61.722075 210.601774 
L 61.975923 210.447901 
L 62.229771 210.294027 
" style="fill:none;stroke:#9467bd;stroke-linecap:square;stroke-width:1.5;"/>
   </g>
   <g id="line2d_20">
    <path clip-path="url(#pe208f3d820)" d="M 54.868182 214.756364 
L 55.12203 214.646454 
L 55.375878 214.536544 
L 55.629726 214.426634 
L 55.883573 214.316725 
L 56.137421 214.206815 
L 56.391269 214.096905 
L 56.645117 213.986995 
L 56.898965 213.877085 
L 57.152813 213.767176 
L 57.406661 213.657266 
L 57.660509 213.547356 
L 57.914357 213.437446 
L 58.168205 213.327537 
L 58.422052 213.217627 
L 58.6759 213.107717 
L 58.929748 212.997807 
L 59.183596 212.887897 
L 59.437444 212.777988 
L 59.691292 212.668078 
L 59.94514 212.558168 
L 60.198988 212.448258 
L 60.452836 212.338349 
L 60.706684 212.228439 
L 60.960532 212.118529 
L 61.214379 212.008619 
L 61.468227 211.89871 
L 61.722075 211.7888 
L 61.975923 211.67889 
L 62.229771 211.56898 
L 62.483619 211.45907 
L 62.737467 211.349161 
L 62.991315 211.239251 
L 63.245163 211.129341 
L 63.499011 211.019431 
L 63.752858 210.909522 
L 64.006706 210.799612 
L 64.260554 210.689702 
L 64.514402 210.579792 
L 64.76825 210.469882 
L 65.022098 210.359973 
L 65.275946 210.250063 
L 65.529794 210.140153 
L 65.783642 210.030243 
L 66.03749 209.920334 
L 66.291337 209.810424 
L 66.545185 209.700514 
L 66.799033 209.590604 
L 67.052881 209.480695 
L 67.306729 209.370785 
L 67.560577 209.260875 
L 67.814425 209.150965 
L 68.068273 209.041055 
L 68.322121 208.931146 
L 68.575969 208.821236 
L 68.829817 208.711326 
L 69.083664 208.601416 
L 69.337512 208.491507 
L 69.59136 208.381597 
L 69.845208 208.271687 
" style="fill:none;stroke:#8c564b;stroke-linecap:square;stroke-width:1.5;"/>
   </g>
   <g id="line2d_21">
    <path clip-path="url(#pe208f3d820)" d="M 54.868182 214.756364 
L 55.12203 214.591499 
L 55.375878 214.426634 
L 55.629726 214.26177 
L 55.883573 214.096905 
L 56.137421 213.93204 
L 56.391269 213.767176 
L 56.645117 213.602311 
L 56.898965 213.437446 
L 57.152813 213.272582 
L 57.406661 213.107717 
L 57.660509 212.942852 
L 57.914357 212.777988 
L 58.168205 212.613123 
L 58.422052 212.448258 
L 58.6759 212.283394 
L 58.929748 212.118529 
L 59.183596 211.953664 
L 59.437444 211.7888 
L 59.691292 211.623935 
" style="fill:none;stroke:#e377c2;stroke-linecap:square;stroke-width:1.5;"/>
   </g>
   <g id="line2d_22">
    <path clip-path="url(#pe208f3d820)" d="M 54.868182 214.756364 
L 55.12203 214.60249 
L 55.375878 214.448616 
L 55.629726 214.294743 
L 55.883573 214.140869 
L 56.137421 213.986995 
L 56.391269 213.833122 
L 56.645117 213.679248 
L 56.898965 213.525374 
L 57.152813 213.3715 
L 57.406661 213.217627 
L 57.660509 213.063753 
L 57.914357 212.909879 
L 58.168205 212.756006 
L 58.422052 212.602132 
L 58.6759 212.448258 
L 58.929748 212.294385 
L 59.183596 212.140511 
L 59.437444 211.986637 
L 59.691292 211.832764 
L 59.94514 211.67889 
L 60.198988 211.525016 
L 60.452836 211.371143 
L 60.706684 211.217269 
L 60.960532 211.063395 
L 61.214379 210.909522 
L 61.468227 210.755648 
L 61.722075 210.601774 
L 61.975923 210.447901 
L 62.229771 210.294027 
" style="fill:none;stroke:#7f7f7f;stroke-linecap:square;stroke-width:1.5;"/>
   </g>
   <g id="line2d_23">
    <path clip-path="url(#pe208f3d820)" d="M 54.868182 214.756364 
L 55.12203 214.646454 
L 55.375878 214.536544 
L 55.629726 214.426634 
L 55.883573 214.316725 
L 56.137421 214.206815 
L 56.391269 214.096905 
L 56.645117 213.986995 
L 56.898965 213.877085 
L 57.152813 213.767176 
L 57.406661 213.657266 
L 57.660509 213.547356 
L 57.914357 213.437446 
L 58.168205 213.327537 
L 58.422052 213.217627 
L 58.6759 213.107717 
L 58.929748 212.997807 
L 59.183596 212.887897 
L 59.437444 212.777988 
L 59.691292 212.668078 
L 59.94514 212.558168 
L 60.198988 212.448258 
L 60.452836 212.338349 
L 60.706684 212.228439 
L 60.960532 212.118529 
L 61.214379 212.008619 
L 61.468227 211.89871 
L 61.722075 211.7888 
L 61.975923 211.67889 
L 62.229771 211.56898 
L 62.483619 211.45907 
L 62.737467 211.349161 
L 62.991315 211.239251 
L 63.245163 211.129341 
L 63.499011 211.019431 
L 63.752858 210.909522 
L 64.006706 210.799612 
L 64.260554 210.689702 
L 64.514402 210.579792 
L 64.76825 210.469882 
L 65.022098 210.359973 
L 65.275946 210.250063 
L 65.529794 210.140153 
L 65.783642 210.030243 
L 66.03749 209.920334 
L 66.291337 209.810424 
L 66.545185 209.700514 
L 66.799033 209.590604 
L 67.052881 209.480695 
L 67.306729 209.370785 
L 67.560577 209.260875 
L 67.814425 209.150965 
L 68.068273 209.041055 
L 68.322121 208.931146 
L 68.575969 208.821236 
L 68.829817 208.711326 
L 69.083664 208.601416 
L 69.337512 208.491507 
L 69.59136 208.381597 
L 69.845208 208.271687 
" style="fill:none;stroke:#bcbd22;stroke-linecap:square;stroke-width:1.5;"/>
   </g>
   <g id="line2d_24">
    <path clip-path="url(#pe208f3d820)" d="M 54.868182 214.756364 
L 55.12203 214.426634 
L 55.375878 214.096905 
L 55.629726 213.767176 
L 55.883573 213.437446 
L 56.137421 213.107717 
L 56.391269 212.777988 
L 56.645117 212.448258 
L 56.898965 212.118529 
L 57.152813 211.7888 
L 57.406661 211.45907 
L 57.660509 211.129341 
L 57.914357 210.799612 
L 58.168205 210.469882 
L 58.422052 210.140153 
L 58.6759 209.810424 
L 58.929748 209.480695 
L 59.183596 209.150965 
L 59.437444 208.821236 
L 59.691292 208.491507 
L 59.94514 208.161777 
L 60.198988 207.832048 
L 60.452836 207.502319 
L 60.706684 207.172589 
L 60.960532 206.84286 
L 61.214379 206.513131 
L 61.468227 206.183401 
L 61.722075 205.853672 
L 61.975923 205.523943 
L 62.229771 205.194213 
L 62.483619 204.864484 
L 62.737467 204.534755 
L 62.991315 204.205025 
L 63.245163 203.875296 
L 63.499011 203.545567 
L 63.752858 203.215837 
L 64.006706 202.886108 
L 64.260554 202.556379 
L 64.514402 202.226649 
L 64.76825 201.89692 
L 65.022098 201.567191 
L 65.275946 201.237462 
L 65.529794 200.907732 
L 65.783642 200.578003 
L 66.03749 200.248274 
L 66.291337 199.918544 
L 66.545185 199.588815 
L 66.799033 199.259086 
L 67.052881 198.929356 
L 67.306729 198.599627 
L 67.560577 198.269898 
L 67.814425 197.940168 
L 68.068273 197.610439 
L 68.322121 197.28071 
L 68.575969 196.95098 
L 68.829817 196.621251 
L 69.083664 196.291522 
L 69.337512 195.961792 
L 69.59136 195.632063 
L 69.845208 195.302334 
L 70.099056 194.972604 
L 70.352904 194.642875 
L 70.606752 194.313146 
L 70.8606 193.983416 
L 71.114448 193.653687 
L 71.368296 193.323958 
L 71.622143 192.994229 
L 71.875991 192.664499 
L 72.129839 192.33477 
L 72.383687 192.005041 
L 72.637535 191.675311 
L 72.891383 191.345582 
L 73.145231 191.015853 
L 73.399079 190.686123 
L 73.652927 190.356394 
L 73.906775 190.026665 
L 74.160622 189.696935 
L 74.41447 189.367206 
L 74.668318 189.037477 
L 74.922166 188.707747 
L 75.176014 188.378018 
L 75.429862 188.048289 
L 75.68371 187.718559 
L 75.937558 187.38883 
L 76.191406 187.059101 
L 76.445254 186.729371 
L 76.699102 186.399642 
L 76.952949 186.069913 
L 77.206797 185.740183 
L 77.460645 185.410454 
L 77.714493 185.080725 
L 77.968341 184.750996 
L 78.222189 184.421266 
L 78.476037 184.091537 
L 78.729885 183.761808 
L 78.983733 183.432078 
L 79.237581 183.102349 
L 79.491428 182.77262 
L 79.745276 182.44289 
L 79.999124 182.113161 
" style="fill:none;stroke:#17becf;stroke-linecap:square;stroke-width:1.5;"/>
   </g>
   <g id="line2d_25">
    <path clip-path="url(#pe208f3d820)" d="M 54.868182 214.756364 
L 55.12203 214.591499 
L 55.375878 214.426634 
L 55.629726 214.26177 
L 55.883573 214.096905 
L 56.137421 213.93204 
L 56.391269 213.767176 
L 56.645117 213.602311 
L 56.898965 213.437446 
L 57.152813 213.272582 
L 57.406661 213.107717 
L 57.660509 212.942852 
L 57.914357 212.777988 
L 58.168205 212.613123 
L 58.422052 212.448258 
L 58.6759 212.283394 
L 58.929748 212.118529 
L 59.183596 211.953664 
L 59.437444 211.7888 
L 59.691292 211.623935 
" style="fill:none;stroke:#1f77b4;stroke-linecap:square;stroke-width:1.5;"/>
   </g>
   <g id="line2d_26">
    <path clip-path="url(#pe208f3d820)" d="M 54.868182 214.756364 
L 55.12203 214.60249 
L 55.375878 214.448616 
L 55.629726 214.294743 
L 55.883573 214.140869 
L 56.137421 213.986995 
L 56.391269 213.833122 
L 56.645117 213.679248 
L 56.898965 213.525374 
L 57.152813 213.3715 
L 57.406661 213.217627 
L 57.660509 213.063753 
L 57.914357 212.909879 
L 58.168205 212.756006 
L 58.422052 212.602132 
L 58.6759 212.448258 
L 58.929748 212.294385 
L 59.183596 212.140511 
L 59.437444 211.986637 
L 59.691292 211.832764 
L 59.94514 211.67889 
L 60.198988 211.525016 
L 60.452836 211.371143 
L 60.706684 211.217269 
L 60.960532 211.063395 
L 61.214379 210.909522 
L 61.468227 210.755648 
L 61.722075 210.601774 
L 61.975923 210.447901 
L 62.229771 210.294027 
" style="fill:none;stroke:#ff7f0e;stroke-linecap:square;stroke-width:1.5;"/>
   </g>
   <g id="line2d_27">
    <path clip-path="url(#pe208f3d820)" d="M 54.868182 214.756364 
L 55.12203 214.646454 
L 55.375878 214.536544 
L 55.629726 214.426634 
L 55.883573 214.316725 
L 56.137421 214.206815 
L 56.391269 214.096905 
L 56.645117 213.986995 
L 56.898965 213.877085 
L 57.152813 213.767176 
L 57.406661 213.657266 
L 57.660509 213.547356 
L 57.914357 213.437446 
L 58.168205 213.327537 
L 58.422052 213.217627 
L 58.6759 213.107717 
L 58.929748 212.997807 
L 59.183596 212.887897 
L 59.437444 212.777988 
L 59.691292 212.668078 
L 59.94514 212.558168 
L 60.198988 212.448258 
L 60.452836 212.338349 
L 60.706684 212.228439 
L 60.960532 212.118529 
L 61.214379 212.008619 
L 61.468227 211.89871 
L 61.722075 211.7888 
L 61.975923 211.67889 
L 62.229771 211.56898 
L 62.483619 211.45907 
L 62.737467 211.349161 
L 62.991315 211.239251 
L 63.245163 211.129341 
L 63.499011 211.019431 
L 63.752858 210.909522 
L 64.006706 210.799612 
L 64.260554 210.689702 
L 64.514402 210.579792 
L 64.76825 210.469882 
L 65.022098 210.359973 
L 65.275946 210.250063 
L 65.529794 210.140153 
L 65.783642 210.030243 
L 66.03749 209.920334 
L 66.291337 209.810424 
L 66.545185 209.700514 
L 66.799033 209.590604 
L 67.052881 209.480695 
L 67.306729 209.370785 
L 67.560577 209.260875 
L 67.814425 209.150965 
L 68.068273 209.041055 
L 68.322121 208.931146 
L 68.575969 208.821236 
L 68.829817 208.711326 
L 69.083664 208.601416 
L 69.337512 208.491507 
L 69.59136 208.381597 
L 69.845208 208.271687 
" style="fill:none;stroke:#2ca02c;stroke-linecap:square;stroke-width:1.5;"/>
   </g>
   <g id="line2d_28">
    <path clip-path="url(#pe208f3d820)" d="M 54.868182 214.756364 
L 55.12203 214.426634 
L 55.375878 214.096905 
L 55.629726 213.767176 
L 55.883573 213.437446 
L 56.137421 213.107717 
L 56.391269 212.777988 
L 56.645117 212.448258 
L 56.898965 212.118529 
L 57.152813 211.7888 
L 57.406661 211.45907 
L 57.660509 211.129341 
L 57.914357 210.799612 
L 58.168205 210.469882 
L 58.422052 210.140153 
L 58.6759 209.810424 
L 58.929748 209.480695 
L 59.183596 209.150965 
L 59.437444 208.821236 
L 59.691292 208.491507 
L 59.94514 208.161777 
L 60.198988 207.832048 
L 60.452836 207.502319 
L 60.706684 207.172589 
L 60.960532 206.84286 
L 61.214379 206.513131 
L 61.468227 206.183401 
L 61.722075 205.853672 
L 61.975923 205.523943 
L 62.229771 205.194213 
L 62.483619 204.864484 
L 62.737467 204.534755 
L 62.991315 204.205025 
L 63.245163 203.875296 
L 63.499011 203.545567 
L 63.752858 203.215837 
L 64.006706 202.886108 
L 64.260554 202.556379 
L 64.514402 202.226649 
L 64.76825 201.89692 
L 65.022098 201.567191 
L 65.275946 201.237462 
L 65.529794 200.907732 
L 65.783642 200.578003 
L 66.03749 200.248274 
L 66.291337 199.918544 
L 66.545185 199.588815 
L 66.799033 199.259086 
L 67.052881 198.929356 
L 67.306729 198.599627 
L 67.560577 198.269898 
L 67.814425 197.940168 
L 68.068273 197.610439 
L 68.322121 197.28071 
L 68.575969 196.95098 
L 68.829817 196.621251 
L 69.083664 196.291522 
L 69.337512 195.961792 
L 69.59136 195.632063 
L 69.845208 195.302334 
L 70.099056 194.972604 
L 70.352904 194.642875 
L 70.606752 194.313146 
L 70.8606 193.983416 
L 71.114448 193.653687 
L 71.368296 193.323958 
L 71.622143 192.994229 
L 71.875991 192.664499 
L 72.129839 192.33477 
L 72.383687 192.005041 
L 72.637535 191.675311 
L 72.891383 191.345582 
L 73.145231 191.015853 
L 73.399079 190.686123 
L 73.652927 190.356394 
L 73.906775 190.026665 
L 74.160622 189.696935 
L 74.41447 189.367206 
L 74.668318 189.037477 
L 74.922166 188.707747 
L 75.176014 188.378018 
L 75.429862 188.048289 
L 75.68371 187.718559 
L 75.937558 187.38883 
L 76.191406 187.059101 
L 76.445254 186.729371 
L 76.699102 186.399642 
L 76.952949 186.069913 
L 77.206797 185.740183 
L 77.460645 185.410454 
L 77.714493 185.080725 
L 77.968341 184.750996 
L 78.222189 184.421266 
L 78.476037 184.091537 
L 78.729885 183.761808 
L 78.983733 183.432078 
L 79.237581 183.102349 
L 79.491428 182.77262 
L 79.745276 182.44289 
L 79.999124 182.113161 
" style="fill:none;stroke:#d62728;stroke-linecap:square;stroke-width:1.5;"/>
   </g>
   <g id="line2d_29">
    <path clip-path="url(#pe208f3d820)" d="M 54.868182 214.756364 
L 118.07631 172.063011 
L 118.07631 172.063011 
" style="fill:none;stroke:#9467bd;stroke-linecap:square;stroke-width:1.5;"/>
   </g>
   <g id="line2d_30">
    <path clip-path="url(#pe208f3d820)" d="M 54.868182 214.756364 
L 55.12203 214.591499 
L 55.375878 214.426634 
L 55.629726 214.26177 
L 55.883573 214.096905 
L 56.137421 213.93204 
L 56.391269 213.767176 
L 56.645117 213.602311 
L 56.898965 213.437446 
L 57.152813 213.272582 
L 57.406661 213.107717 
L 57.660509 212.942852 
L 57.914357 212.777988 
L 58.168205 212.613123 
L 58.422052 212.448258 
L 58.6759 212.283394 
L 58.929748 212.118529 
L 59.183596 211.953664 
L 59.437444 211.7888 
L 59.691292 211.623935 
" style="fill:none;stroke:#8c564b;stroke-linecap:square;stroke-width:1.5;"/>
   </g>
   <g id="line2d_31">
    <path clip-path="url(#pe208f3d820)" d="M 54.868182 214.756364 
L 55.12203 214.60249 
L 55.375878 214.448616 
L 55.629726 214.294743 
L 55.883573 214.140869 
L 56.137421 213.986995 
L 56.391269 213.833122 
L 56.645117 213.679248 
L 56.898965 213.525374 
L 57.152813 213.3715 
L 57.406661 213.217627 
L 57.660509 213.063753 
L 57.914357 212.909879 
L 58.168205 212.756006 
L 58.422052 212.602132 
L 58.6759 212.448258 
L 58.929748 212.294385 
L 59.183596 212.140511 
L 59.437444 211.986637 
L 59.691292 211.832764 
L 59.94514 211.67889 
L 60.198988 211.525016 
L 60.452836 211.371143 
L 60.706684 211.217269 
L 60.960532 211.063395 
L 61.214379 210.909522 
L 61.468227 210.755648 
L 61.722075 210.601774 
L 61.975923 210.447901 
L 62.229771 210.294027 
" style="fill:none;stroke:#e377c2;stroke-linecap:square;stroke-width:1.5;"/>
   </g>
   <g id="line2d_32">
    <path clip-path="url(#pe208f3d820)" d="M 54.868182 214.756364 
L 55.12203 214.646454 
L 55.375878 214.536544 
L 55.629726 214.426634 
L 55.883573 214.316725 
L 56.137421 214.206815 
L 56.391269 214.096905 
L 56.645117 213.986995 
L 56.898965 213.877085 
L 57.152813 213.767176 
L 57.406661 213.657266 
L 57.660509 213.547356 
L 57.914357 213.437446 
L 58.168205 213.327537 
L 58.422052 213.217627 
L 58.6759 213.107717 
L 58.929748 212.997807 
L 59.183596 212.887897 
L 59.437444 212.777988 
L 59.691292 212.668078 
L 59.94514 212.558168 
L 60.198988 212.448258 
L 60.452836 212.338349 
L 60.706684 212.228439 
L 60.960532 212.118529 
L 61.214379 212.008619 
L 61.468227 211.89871 
L 61.722075 211.7888 
L 61.975923 211.67889 
L 62.229771 211.56898 
L 62.483619 211.45907 
L 62.737467 211.349161 
L 62.991315 211.239251 
L 63.245163 211.129341 
L 63.499011 211.019431 
L 63.752858 210.909522 
L 64.006706 210.799612 
L 64.260554 210.689702 
L 64.514402 210.579792 
L 64.76825 210.469882 
L 65.022098 210.359973 
L 65.275946 210.250063 
L 65.529794 210.140153 
L 65.783642 210.030243 
L 66.03749 209.920334 
L 66.291337 209.810424 
L 66.545185 209.700514 
L 66.799033 209.590604 
L 67.052881 209.480695 
L 67.306729 209.370785 
L 67.560577 209.260875 
L 67.814425 209.150965 
L 68.068273 209.041055 
L 68.322121 208.931146 
L 68.575969 208.821236 
L 68.829817 208.711326 
L 69.083664 208.601416 
L 69.337512 208.491507 
L 69.59136 208.381597 
L 69.845208 208.271687 
" style="fill:none;stroke:#7f7f7f;stroke-linecap:square;stroke-width:1.5;"/>
   </g>
   <g id="line2d_33">
    <path clip-path="url(#pe208f3d820)" d="M 54.868182 214.756364 
L 55.12203 214.426634 
L 55.375878 214.096905 
L 55.629726 213.767176 
L 55.883573 213.437446 
L 56.137421 213.107717 
L 56.391269 212.777988 
L 56.645117 212.448258 
L 56.898965 212.118529 
L 57.152813 211.7888 
L 57.406661 211.45907 
L 57.660509 211.129341 
L 57.914357 210.799612 
L 58.168205 210.469882 
L 58.422052 210.140153 
L 58.6759 209.810424 
L 58.929748 209.480695 
L 59.183596 209.150965 
L 59.437444 208.821236 
L 59.691292 208.491507 
L 59.94514 208.161777 
L 60.198988 207.832048 
L 60.452836 207.502319 
L 60.706684 207.172589 
L 60.960532 206.84286 
L 61.214379 206.513131 
L 61.468227 206.183401 
L 61.722075 205.853672 
L 61.975923 205.523943 
L 62.229771 205.194213 
L 62.483619 204.864484 
L 62.737467 204.534755 
L 62.991315 204.205025 
L 63.245163 203.875296 
L 63.499011 203.545567 
L 63.752858 203.215837 
L 64.006706 202.886108 
L 64.260554 202.556379 
L 64.514402 202.226649 
L 64.76825 201.89692 
L 65.022098 201.567191 
L 65.275946 201.237462 
L 65.529794 200.907732 
L 65.783642 200.578003 
L 66.03749 200.248274 
L 66.291337 199.918544 
L 66.545185 199.588815 
L 66.799033 199.259086 
L 67.052881 198.929356 
L 67.306729 198.599627 
L 67.560577 198.269898 
L 67.814425 197.940168 
L 68.068273 197.610439 
L 68.322121 197.28071 
L 68.575969 196.95098 
L 68.829817 196.621251 
L 69.083664 196.291522 
L 69.337512 195.961792 
L 69.59136 195.632063 
L 69.845208 195.302334 
L 70.099056 194.972604 
L 70.352904 194.642875 
L 70.606752 194.313146 
L 70.8606 193.983416 
L 71.114448 193.653687 
L 71.368296 193.323958 
L 71.622143 192.994229 
L 71.875991 192.664499 
L 72.129839 192.33477 
L 72.383687 192.005041 
L 72.637535 191.675311 
L 72.891383 191.345582 
L 73.145231 191.015853 
L 73.399079 190.686123 
L 73.652927 190.356394 
L 73.906775 190.026665 
L 74.160622 189.696935 
L 74.41447 189.367206 
L 74.668318 189.037477 
L 74.922166 188.707747 
L 75.176014 188.378018 
L 75.429862 188.048289 
L 75.68371 187.718559 
L 75.937558 187.38883 
L 76.191406 187.059101 
L 76.445254 186.729371 
L 76.699102 186.399642 
L 76.952949 186.069913 
L 77.206797 185.740183 
L 77.460645 185.410454 
L 77.714493 185.080725 
L 77.968341 184.750996 
L 78.222189 184.421266 
L 78.476037 184.091537 
L 78.729885 183.761808 
L 78.983733 183.432078 
L 79.237581 183.102349 
L 79.491428 182.77262 
L 79.745276 182.44289 
L 79.999124 182.113161 
" style="fill:none;stroke:#bcbd22;stroke-linecap:square;stroke-width:1.5;"/>
   </g>
   <g id="line2d_34">
    <path clip-path="url(#pe208f3d820)" d="M 54.868182 214.756364 
L 118.07631 172.063011 
L 118.07631 172.063011 
" style="fill:none;stroke:#17becf;stroke-linecap:square;stroke-width:1.5;"/>
   </g>
   <g id="line2d_35">
    <path clip-path="url(#pe208f3d820)" d="M 54.868182 214.756364 
L 156.153495 155.553464 
L 156.153495 155.553464 
" style="fill:none;stroke:#1f77b4;stroke-linecap:square;stroke-width:1.5;"/>
   </g>
   <g id="line2d_36">
    <path clip-path="url(#pe208f3d820)" d="M 54.868182 214.756364 
L 55.12203 214.591499 
L 55.375878 214.426634 
L 55.629726 214.26177 
L 55.883573 214.096905 
L 56.137421 213.93204 
L 56.391269 213.767176 
L 56.645117 213.602311 
L 56.898965 213.437446 
L 57.152813 213.272582 
L 57.406661 213.107717 
L 57.660509 212.942852 
L 57.914357 212.777988 
L 58.168205 212.613123 
L 58.422052 212.448258 
L 58.6759 212.283394 
L 58.929748 212.118529 
L 59.183596 211.953664 
L 59.437444 211.7888 
L 59.691292 211.623935 
" style="fill:none;stroke:#ff7f0e;stroke-linecap:square;stroke-width:1.5;"/>
   </g>
   <g id="line2d_37">
    <path clip-path="url(#pe208f3d820)" d="M 54.868182 214.756364 
L 55.12203 214.60249 
L 55.375878 214.448616 
L 55.629726 214.294743 
L 55.883573 214.140869 
L 56.137421 213.986995 
L 56.391269 213.833122 
L 56.645117 213.679248 
L 56.898965 213.525374 
L 57.152813 213.3715 
L 57.406661 213.217627 
L 57.660509 213.063753 
L 57.914357 212.909879 
L 58.168205 212.756006 
L 58.422052 212.602132 
L 58.6759 212.448258 
L 58.929748 212.294385 
L 59.183596 212.140511 
L 59.437444 211.986637 
L 59.691292 211.832764 
L 59.94514 211.67889 
L 60.198988 211.525016 
L 60.452836 211.371143 
L 60.706684 211.217269 
L 60.960532 211.063395 
L 61.214379 210.909522 
L 61.468227 210.755648 
L 61.722075 210.601774 
L 61.975923 210.447901 
L 62.229771 210.294027 
" style="fill:none;stroke:#2ca02c;stroke-linecap:square;stroke-width:1.5;"/>
   </g>
   <g id="line2d_38">
    <path clip-path="url(#pe208f3d820)" d="M 54.868182 214.756364 
L 55.12203 214.646454 
L 55.375878 214.536544 
L 55.629726 214.426634 
L 55.883573 214.316725 
L 56.137421 214.206815 
L 56.391269 214.096905 
L 56.645117 213.986995 
L 56.898965 213.877085 
L 57.152813 213.767176 
L 57.406661 213.657266 
L 57.660509 213.547356 
L 57.914357 213.437446 
L 58.168205 213.327537 
L 58.422052 213.217627 
L 58.6759 213.107717 
L 58.929748 212.997807 
L 59.183596 212.887897 
L 59.437444 212.777988 
L 59.691292 212.668078 
L 59.94514 212.558168 
L 60.198988 212.448258 
L 60.452836 212.338349 
L 60.706684 212.228439 
L 60.960532 212.118529 
L 61.214379 212.008619 
L 61.468227 211.89871 
L 61.722075 211.7888 
L 61.975923 211.67889 
L 62.229771 211.56898 
L 62.483619 211.45907 
L 62.737467 211.349161 
L 62.991315 211.239251 
L 63.245163 211.129341 
L 63.499011 211.019431 
L 63.752858 210.909522 
L 64.006706 210.799612 
L 64.260554 210.689702 
L 64.514402 210.579792 
L 64.76825 210.469882 
L 65.022098 210.359973 
L 65.275946 210.250063 
L 65.529794 210.140153 
L 65.783642 210.030243 
L 66.03749 209.920334 
L 66.291337 209.810424 
L 66.545185 209.700514 
L 66.799033 209.590604 
L 67.052881 209.480695 
L 67.306729 209.370785 
L 67.560577 209.260875 
L 67.814425 209.150965 
L 68.068273 209.041055 
L 68.322121 208.931146 
L 68.575969 208.821236 
L 68.829817 208.711326 
L 69.083664 208.601416 
L 69.337512 208.491507 
L 69.59136 208.381597 
L 69.845208 208.271687 
" style="fill:none;stroke:#d62728;stroke-linecap:square;stroke-width:1.5;"/>
   </g>
   <g id="line2d_39">
    <path clip-path="url(#pe208f3d820)" d="M 54.868182 214.756364 
L 55.12203 214.426634 
L 55.375878 214.096905 
L 55.629726 213.767176 
L 55.883573 213.437446 
L 56.137421 213.107717 
L 56.391269 212.777988 
L 56.645117 212.448258 
L 56.898965 212.118529 
L 57.152813 211.7888 
L 57.406661 211.45907 
L 57.660509 211.129341 
L 57.914357 210.799612 
L 58.168205 210.469882 
L 58.422052 210.140153 
L 58.6759 209.810424 
L 58.929748 209.480695 
L 59.183596 209.150965 
L 59.437444 208.821236 
L 59.691292 208.491507 
L 59.94514 208.161777 
L 60.198988 207.832048 
L 60.452836 207.502319 
L 60.706684 207.172589 
L 60.960532 206.84286 
L 61.214379 206.513131 
L 61.468227 206.183401 
L 61.722075 205.853672 
L 61.975923 205.523943 
L 62.229771 205.194213 
L 62.483619 204.864484 
L 62.737467 204.534755 
L 62.991315 204.205025 
L 63.245163 203.875296 
L 63.499011 203.545567 
L 63.752858 203.215837 
L 64.006706 202.886108 
L 64.260554 202.556379 
L 64.514402 202.226649 
L 64.76825 201.89692 
L 65.022098 201.567191 
L 65.275946 201.237462 
L 65.529794 200.907732 
L 65.783642 200.578003 
L 66.03749 200.248274 
L 66.291337 199.918544 
L 66.545185 199.588815 
L 66.799033 199.259086 
L 67.052881 198.929356 
L 67.306729 198.599627 
L 67.560577 198.269898 
L 67.814425 197.940168 
L 68.068273 197.610439 
L 68.322121 197.28071 
L 68.575969 196.95098 
L 68.829817 196.621251 
L 69.083664 196.291522 
L 69.337512 195.961792 
L 69.59136 195.632063 
L 69.845208 195.302334 
L 70.099056 194.972604 
L 70.352904 194.642875 
L 70.606752 194.313146 
L 70.8606 193.983416 
L 71.114448 193.653687 
L 71.368296 193.323958 
L 71.622143 192.994229 
L 71.875991 192.664499 
L 72.129839 192.33477 
L 72.383687 192.005041 
L 72.637535 191.675311 
L 72.891383 191.345582 
L 73.145231 191.015853 
L 73.399079 190.686123 
L 73.652927 190.356394 
L 73.906775 190.026665 
L 74.160622 189.696935 
L 74.41447 189.367206 
L 74.668318 189.037477 
L 74.922166 188.707747 
L 75.176014 188.378018 
L 75.429862 188.048289 
L 75.68371 187.718559 
L 75.937558 187.38883 
L 76.191406 187.059101 
L 76.445254 186.729371 
L 76.699102 186.399642 
L 76.952949 186.069913 
L 77.206797 185.740183 
L 77.460645 185.410454 
L 77.714493 185.080725 
L 77.968341 184.750996 
L 78.222189 184.421266 
L 78.476037 184.091537 
L 78.729885 183.761808 
L 78.983733 183.432078 
L 79.237581 183.102349 
L 79.491428 182.77262 
L 79.745276 182.44289 
L 79.999124 182.113161 
" style="fill:none;stroke:#9467bd;stroke-linecap:square;stroke-width:1.5;"/>
   </g>
   <g id="line2d_40">
    <path clip-path="url(#pe208f3d820)" d="M 54.868182 214.756364 
L 118.07631 172.063011 
L 118.07631 172.063011 
" style="fill:none;stroke:#8c564b;stroke-linecap:square;stroke-width:1.5;"/>
   </g>
   <g id="line2d_41">
    <path clip-path="url(#pe208f3d820)" d="M 54.868182 214.756364 
L 156.153495 155.553464 
L 156.153495 155.553464 
" style="fill:none;stroke:#e377c2;stroke-linecap:square;stroke-width:1.5;"/>
   </g>
   <g id="line2d_42">
    <path clip-path="url(#pe208f3d820)" d="M 54.868182 214.756364 
L 206.923076 148.920409 
L 206.923076 148.920409 
" style="fill:none;stroke:#7f7f7f;stroke-linecap:square;stroke-width:1.5;"/>
   </g>
   <g id="line2d_43">
    <path clip-path="url(#pe208f3d820)" d="M 54.868182 214.756364 
L 55.12203 214.591499 
L 55.375878 214.426634 
L 55.629726 214.26177 
L 55.883573 214.096905 
L 56.137421 213.93204 
L 56.391269 213.767176 
L 56.645117 213.602311 
L 56.898965 213.437446 
L 57.152813 213.272582 
L 57.406661 213.107717 
L 57.660509 212.942852 
L 57.914357 212.777988 
L 58.168205 212.613123 
L 58.422052 212.448258 
L 58.6759 212.283394 
L 58.929748 212.118529 
L 59.183596 211.953664 
L 59.437444 211.7888 
L 59.691292 211.623935 
" style="fill:none;stroke:#bcbd22;stroke-linecap:square;stroke-width:1.5;"/>
   </g>
   <g id="line2d_44">
    <path clip-path="url(#pe208f3d820)" d="M 54.868182 214.756364 
L 55.12203 214.60249 
L 55.375878 214.448616 
L 55.629726 214.294743 
L 55.883573 214.140869 
L 56.137421 213.986995 
L 56.391269 213.833122 
L 56.645117 213.679248 
L 56.898965 213.525374 
L 57.152813 213.3715 
L 57.406661 213.217627 
L 57.660509 213.063753 
L 57.914357 212.909879 
L 58.168205 212.756006 
L 58.422052 212.602132 
L 58.6759 212.448258 
L 58.929748 212.294385 
L 59.183596 212.140511 
L 59.437444 211.986637 
L 59.691292 211.832764 
L 59.94514 211.67889 
L 60.198988 211.525016 
L 60.452836 211.371143 
L 60.706684 211.217269 
L 60.960532 211.063395 
L 61.214379 210.909522 
L 61.468227 210.755648 
L 61.722075 210.601774 
L 61.975923 210.447901 
L 62.229771 210.294027 
" style="fill:none;stroke:#17becf;stroke-linecap:square;stroke-width:1.5;"/>
   </g>
   <g id="line2d_45">
    <path clip-path="url(#pe208f3d820)" d="M 54.868182 214.756364 
L 55.12203 214.646454 
L 55.375878 214.536544 
L 55.629726 214.426634 
L 55.883573 214.316725 
L 56.137421 214.206815 
L 56.391269 214.096905 
L 56.645117 213.986995 
L 56.898965 213.877085 
L 57.152813 213.767176 
L 57.406661 213.657266 
L 57.660509 213.547356 
L 57.914357 213.437446 
L 58.168205 213.327537 
L 58.422052 213.217627 
L 58.6759 213.107717 
L 58.929748 212.997807 
L 59.183596 212.887897 
L 59.437444 212.777988 
L 59.691292 212.668078 
L 59.94514 212.558168 
L 60.198988 212.448258 
L 60.452836 212.338349 
L 60.706684 212.228439 
L 60.960532 212.118529 
L 61.214379 212.008619 
L 61.468227 211.89871 
L 61.722075 211.7888 
L 61.975923 211.67889 
L 62.229771 211.56898 
L 62.483619 211.45907 
L 62.737467 211.349161 
L 62.991315 211.239251 
L 63.245163 211.129341 
L 63.499011 211.019431 
L 63.752858 210.909522 
L 64.006706 210.799612 
L 64.260554 210.689702 
L 64.514402 210.579792 
L 64.76825 210.469882 
L 65.022098 210.359973 
L 65.275946 210.250063 
L 65.529794 210.140153 
L 65.783642 210.030243 
L 66.03749 209.920334 
L 66.291337 209.810424 
L 66.545185 209.700514 
L 66.799033 209.590604 
L 67.052881 209.480695 
L 67.306729 209.370785 
L 67.560577 209.260875 
L 67.814425 209.150965 
L 68.068273 209.041055 
L 68.322121 208.931146 
L 68.575969 208.821236 
L 68.829817 208.711326 
L 69.083664 208.601416 
L 69.337512 208.491507 
L 69.59136 208.381597 
L 69.845208 208.271687 
" style="fill:none;stroke:#1f77b4;stroke-linecap:square;stroke-width:1.5;"/>
   </g>
   <g id="line2d_46">
    <path clip-path="url(#pe208f3d820)" d="M 54.868182 214.756364 
L 55.12203 214.426634 
L 55.375878 214.096905 
L 55.629726 213.767176 
L 55.883573 213.437446 
L 56.137421 213.107717 
L 56.391269 212.777988 
L 56.645117 212.448258 
L 56.898965 212.118529 
L 57.152813 211.7888 
L 57.406661 211.45907 
L 57.660509 211.129341 
L 57.914357 210.799612 
L 58.168205 210.469882 
L 58.422052 210.140153 
L 58.6759 209.810424 
L 58.929748 209.480695 
L 59.183596 209.150965 
L 59.437444 208.821236 
L 59.691292 208.491507 
L 59.94514 208.161777 
L 60.198988 207.832048 
L 60.452836 207.502319 
L 60.706684 207.172589 
L 60.960532 206.84286 
L 61.214379 206.513131 
L 61.468227 206.183401 
L 61.722075 205.853672 
L 61.975923 205.523943 
L 62.229771 205.194213 
L 62.483619 204.864484 
L 62.737467 204.534755 
L 62.991315 204.205025 
L 63.245163 203.875296 
L 63.499011 203.545567 
L 63.752858 203.215837 
L 64.006706 202.886108 
L 64.260554 202.556379 
L 64.514402 202.226649 
L 64.76825 201.89692 
L 65.022098 201.567191 
L 65.275946 201.237462 
L 65.529794 200.907732 
L 65.783642 200.578003 
L 66.03749 200.248274 
L 66.291337 199.918544 
L 66.545185 199.588815 
L 66.799033 199.259086 
L 67.052881 198.929356 
L 67.306729 198.599627 
L 67.560577 198.269898 
L 67.814425 197.940168 
L 68.068273 197.610439 
L 68.322121 197.28071 
L 68.575969 196.95098 
L 68.829817 196.621251 
L 69.083664 196.291522 
L 69.337512 195.961792 
L 69.59136 195.632063 
L 69.845208 195.302334 
L 70.099056 194.972604 
L 70.352904 194.642875 
L 70.606752 194.313146 
L 70.8606 193.983416 
L 71.114448 193.653687 
L 71.368296 193.323958 
L 71.622143 192.994229 
L 71.875991 192.664499 
L 72.129839 192.33477 
L 72.383687 192.005041 
L 72.637535 191.675311 
L 72.891383 191.345582 
L 73.145231 191.015853 
L 73.399079 190.686123 
L 73.652927 190.356394 
L 73.906775 190.026665 
L 74.160622 189.696935 
L 74.41447 189.367206 
L 74.668318 189.037477 
L 74.922166 188.707747 
L 75.176014 188.378018 
L 75.429862 188.048289 
L 75.68371 187.718559 
L 75.937558 187.38883 
L 76.191406 187.059101 
L 76.445254 186.729371 
L 76.699102 186.399642 
L 76.952949 186.069913 
L 77.206797 185.740183 
L 77.460645 185.410454 
L 77.714493 185.080725 
L 77.968341 184.750996 
L 78.222189 184.421266 
L 78.476037 184.091537 
L 78.729885 183.761808 
L 78.983733 183.432078 
L 79.237581 183.102349 
L 79.491428 182.77262 
L 79.745276 182.44289 
L 79.999124 182.113161 
" style="fill:none;stroke:#ff7f0e;stroke-linecap:square;stroke-width:1.5;"/>
   </g>
   <g id="line2d_47">
    <path clip-path="url(#pe208f3d820)" d="M 54.868182 214.756364 
L 118.07631 172.063011 
L 118.07631 172.063011 
" style="fill:none;stroke:#2ca02c;stroke-linecap:square;stroke-width:1.5;"/>
   </g>
   <g id="line2d_48">
    <path clip-path="url(#pe208f3d820)" d="M 54.868182 214.756364 
L 156.153495 155.553464 
L 156.153495 155.553464 
" style="fill:none;stroke:#d62728;stroke-linecap:square;stroke-width:1.5;"/>
   </g>
   <g id="line2d_49">
    <path clip-path="url(#pe208f3d820)" d="M 54.868182 214.756364 
L 206.923076 148.920409 
L 206.923076 148.920409 
" style="fill:none;stroke:#9467bd;stroke-linecap:square;stroke-width:1.5;"/>
   </g>
   <g id="line2d_50">
    <path clip-path="url(#pe208f3d820)" d="M 54.868182 214.756364 
L 283.077447 83.011182 
L 283.077447 83.011182 
" style="fill:none;stroke:#8c564b;stroke-linecap:square;stroke-width:1.5;"/>
   </g>
   <g id="line2d_51">
    <path clip-path="url(#pe208f3d820)" d="M 54.868182 214.756364 
L 55.12203 214.591499 
L 55.375878 214.426634 
L 55.629726 214.26177 
L 55.883573 214.096905 
L 56.137421 213.93204 
L 56.391269 213.767176 
L 56.645117 213.602311 
L 56.898965 213.437446 
L 57.152813 213.272582 
L 57.406661 213.107717 
L 57.660509 212.942852 
L 57.914357 212.777988 
L 58.168205 212.613123 
L 58.422052 212.448258 
L 58.6759 212.283394 
L 58.929748 212.118529 
L 59.183596 211.953664 
L 59.437444 211.7888 
L 59.691292 211.623935 
" style="fill:none;stroke:#e377c2;stroke-linecap:square;stroke-width:1.5;"/>
   </g>
   <g id="line2d_52">
    <path clip-path="url(#pe208f3d820)" d="M 54.868182 214.756364 
L 55.12203 214.60249 
L 55.375878 214.448616 
L 55.629726 214.294743 
L 55.883573 214.140869 
L 56.137421 213.986995 
L 56.391269 213.833122 
L 56.645117 213.679248 
L 56.898965 213.525374 
L 57.152813 213.3715 
L 57.406661 213.217627 
L 57.660509 213.063753 
L 57.914357 212.909879 
L 58.168205 212.756006 
L 58.422052 212.602132 
L 58.6759 212.448258 
L 58.929748 212.294385 
L 59.183596 212.140511 
L 59.437444 211.986637 
L 59.691292 211.832764 
L 59.94514 211.67889 
L 60.198988 211.525016 
L 60.452836 211.371143 
L 60.706684 211.217269 
L 60.960532 211.063395 
L 61.214379 210.909522 
L 61.468227 210.755648 
L 61.722075 210.601774 
L 61.975923 210.447901 
L 62.229771 210.294027 
" style="fill:none;stroke:#7f7f7f;stroke-linecap:square;stroke-width:1.5;"/>
   </g>
   <g id="line2d_53">
    <path clip-path="url(#pe208f3d820)" d="M 54.868182 214.756364 
L 55.12203 214.646454 
L 55.375878 214.536544 
L 55.629726 214.426634 
L 55.883573 214.316725 
L 56.137421 214.206815 
L 56.391269 214.096905 
L 56.645117 213.986995 
L 56.898965 213.877085 
L 57.152813 213.767176 
L 57.406661 213.657266 
L 57.660509 213.547356 
L 57.914357 213.437446 
L 58.168205 213.327537 
L 58.422052 213.217627 
L 58.6759 213.107717 
L 58.929748 212.997807 
L 59.183596 212.887897 
L 59.437444 212.777988 
L 59.691292 212.668078 
L 59.94514 212.558168 
L 60.198988 212.448258 
L 60.452836 212.338349 
L 60.706684 212.228439 
L 60.960532 212.118529 
L 61.214379 212.008619 
L 61.468227 211.89871 
L 61.722075 211.7888 
L 61.975923 211.67889 
L 62.229771 211.56898 
L 62.483619 211.45907 
L 62.737467 211.349161 
L 62.991315 211.239251 
L 63.245163 211.129341 
L 63.499011 211.019431 
L 63.752858 210.909522 
L 64.006706 210.799612 
L 64.260554 210.689702 
L 64.514402 210.579792 
L 64.76825 210.469882 
L 65.022098 210.359973 
L 65.275946 210.250063 
L 65.529794 210.140153 
L 65.783642 210.030243 
L 66.03749 209.920334 
L 66.291337 209.810424 
L 66.545185 209.700514 
L 66.799033 209.590604 
L 67.052881 209.480695 
L 67.306729 209.370785 
L 67.560577 209.260875 
L 67.814425 209.150965 
L 68.068273 209.041055 
L 68.322121 208.931146 
L 68.575969 208.821236 
L 68.829817 208.711326 
L 69.083664 208.601416 
L 69.337512 208.491507 
L 69.59136 208.381597 
L 69.845208 208.271687 
" style="fill:none;stroke:#bcbd22;stroke-linecap:square;stroke-width:1.5;"/>
   </g>
   <g id="line2d_54">
    <path clip-path="url(#pe208f3d820)" d="M 54.868182 214.756364 
L 55.12203 214.426634 
L 55.375878 214.096905 
L 55.629726 213.767176 
L 55.883573 213.437446 
L 56.137421 213.107717 
L 56.391269 212.777988 
L 56.645117 212.448258 
L 56.898965 212.118529 
L 57.152813 211.7888 
L 57.406661 211.45907 
L 57.660509 211.129341 
L 57.914357 210.799612 
L 58.168205 210.469882 
L 58.422052 210.140153 
L 58.6759 209.810424 
L 58.929748 209.480695 
L 59.183596 209.150965 
L 59.437444 208.821236 
L 59.691292 208.491507 
L 59.94514 208.161777 
L 60.198988 207.832048 
L 60.452836 207.502319 
L 60.706684 207.172589 
L 60.960532 206.84286 
L 61.214379 206.513131 
L 61.468227 206.183401 
L 61.722075 205.853672 
L 61.975923 205.523943 
L 62.229771 205.194213 
L 62.483619 204.864484 
L 62.737467 204.534755 
L 62.991315 204.205025 
L 63.245163 203.875296 
L 63.499011 203.545567 
L 63.752858 203.215837 
L 64.006706 202.886108 
L 64.260554 202.556379 
L 64.514402 202.226649 
L 64.76825 201.89692 
L 65.022098 201.567191 
L 65.275946 201.237462 
L 65.529794 200.907732 
L 65.783642 200.578003 
L 66.03749 200.248274 
L 66.291337 199.918544 
L 66.545185 199.588815 
L 66.799033 199.259086 
L 67.052881 198.929356 
L 67.306729 198.599627 
L 67.560577 198.269898 
L 67.814425 197.940168 
L 68.068273 197.610439 
L 68.322121 197.28071 
L 68.575969 196.95098 
L 68.829817 196.621251 
L 69.083664 196.291522 
L 69.337512 195.961792 
L 69.59136 195.632063 
L 69.845208 195.302334 
L 70.099056 194.972604 
L 70.352904 194.642875 
L 70.606752 194.313146 
L 70.8606 193.983416 
L 71.114448 193.653687 
L 71.368296 193.323958 
L 71.622143 192.994229 
L 71.875991 192.664499 
L 72.129839 192.33477 
L 72.383687 192.005041 
L 72.637535 191.675311 
L 72.891383 191.345582 
L 73.145231 191.015853 
L 73.399079 190.686123 
L 73.652927 190.356394 
L 73.906775 190.026665 
L 74.160622 189.696935 
L 74.41447 189.367206 
L 74.668318 189.037477 
L 74.922166 188.707747 
L 75.176014 188.378018 
L 75.429862 188.048289 
L 75.68371 187.718559 
L 75.937558 187.38883 
L 76.191406 187.059101 
L 76.445254 186.729371 
L 76.699102 186.399642 
L 76.952949 186.069913 
L 77.206797 185.740183 
L 77.460645 185.410454 
L 77.714493 185.080725 
L 77.968341 184.750996 
L 78.222189 184.421266 
L 78.476037 184.091537 
L 78.729885 183.761808 
L 78.983733 183.432078 
L 79.237581 183.102349 
L 79.491428 182.77262 
L 79.745276 182.44289 
L 79.999124 182.113161 
" style="fill:none;stroke:#17becf;stroke-linecap:square;stroke-width:1.5;"/>
   </g>
   <g id="line2d_55">
    <path clip-path="url(#pe208f3d820)" d="M 54.868182 214.756364 
L 118.07631 172.063011 
L 118.07631 172.063011 
" style="fill:none;stroke:#1f77b4;stroke-linecap:square;stroke-width:1.5;"/>
   </g>
   <g id="line2d_56">
    <path clip-path="url(#pe208f3d820)" d="M 54.868182 214.756364 
L 156.153495 155.553464 
L 156.153495 155.553464 
" style="fill:none;stroke:#ff7f0e;stroke-linecap:square;stroke-width:1.5;"/>
   </g>
   <g id="line2d_57">
    <path clip-path="url(#pe208f3d820)" d="M 54.868182 214.756364 
L 206.923076 148.920409 
L 206.923076 148.920409 
" style="fill:none;stroke:#2ca02c;stroke-linecap:square;stroke-width:1.5;"/>
   </g>
   <g id="line2d_58">
    <path clip-path="url(#pe208f3d820)" d="M 54.868182 214.756364 
L 283.077447 83.011182 
L 283.077447 83.011182 
" style="fill:none;stroke:#d62728;stroke-linecap:square;stroke-width:1.5;"/>
   </g>
   <g id="line2d_59">
    <path clip-path="url(#pe208f3d820)" d="M 54.868182 214.756364 
L 359.231818 17.083636 
L 359.231818 17.083636 
" style="fill:none;stroke:#9467bd;stroke-linecap:square;stroke-width:1.5;"/>
   </g>
   <g id="patch_3">
    <path d="M 39.65 224.64 
L 39.65 7.2 
" style="fill:none;stroke:#000000;stroke-linecap:square;stroke-linejoin:miter;stroke-width:0.8;"/>
   </g>
   <g id="patch_4">
    <path d="M 374.45 224.64 
L 374.45 7.2 
" style="fill:none;stroke:#000000;stroke-linecap:square;stroke-linejoin:miter;stroke-width:0.8;"/>
   </g>
   <g id="patch_5">
    <path d="M 39.65 224.64 
L 374.45 224.64 
" style="fill:none;stroke:#000000;stroke-linecap:square;stroke-linejoin:miter;stroke-width:0.8;"/>
   </g>
   <g id="patch_6">
    <path d="M 39.65 7.2 
L 374.45 7.2 
" style="fill:none;stroke:#000000;stroke-linecap:square;stroke-linejoin:miter;stroke-width:0.8;"/>
   </g>
  </g>
 </g>
 <defs>
  <clipPath id="pe208f3d820">
   <rect height="217.44" width="334.8" x="39.65" y="7.2"/>
  </clipPath>
 </defs>
</svg>
